<svg width="60" height="42" viewBox="0 0 60 42" fill="none" xmlns="http://www.w3.org/2000/svg">
<path d="M48.5996 21.3L43.0496 22.2C40.4496 22.2 38.1496 21.3 36.1496 19.5C34.0496 17.8 32.9996 15.25 32.9996 11.85C32.9996 8.55 34.0996 5.75 36.2996 3.45C38.4996 1.15 41.5996 2.2848e-06 45.5996 2.63449e-06C49.4996 2.97544e-06 52.7496 1.5 55.3496 4.5C57.8496 7.5 59.0996 11.35 59.0996 16.05C59.0996 20.85 57.2996 25.6 53.6996 30.3C49.9996 35 44.7496 38.9 37.9496 42L36.8996 39.45C46.2996 34.25 50.9996 29 50.9996 23.7C50.9996 22.1 50.1996 21.3 48.5996 21.3ZM15.5996 21.3L10.0496 22.2C7.44961 22.2 5.14961 21.3 3.14961 19.5C1.04961 17.8 -0.00039439 15.25 -0.000394093 11.85C-0.000393804 8.55 1.09961 5.74999 3.29961 3.45C5.49961 1.15 8.59961 -6.00153e-07 12.5996 -2.50462e-07C16.4996 9.04868e-08 19.7496 1.5 22.3496 4.5C24.8496 7.5 26.0996 11.35 26.0996 16.05C26.0996 20.85 24.2996 25.6 20.6996 30.3C16.9996 35 11.7496 38.9 4.94961 42L3.89961 39.45C13.2996 34.25 17.9996 29 17.9996 23.7C17.9996 22.1 17.1996 21.3 15.5996 21.3Z" fill="#D5E04E"/>
</svg>
