<svg width="60" height="42" viewBox="0 0 60 42" fill="none" xmlns="http://www.w3.org/2000/svg">
<path d="M10.5 20.7L16.05 19.8C18.65 19.8 20.95 20.7 22.95 22.5C25.05 24.2 26.1 26.75 26.1 30.15C26.1 33.45 25 36.25 22.8 38.55C20.6 40.85 17.5 42 13.5 42C9.6 42 6.35 40.5 3.75 37.5C1.25 34.5 0 30.65 0 25.95C0 21.15 1.8 16.4 5.4 11.7C9.1 6.99999 14.35 3.1 21.15 0L22.2 2.55C12.8 7.74999 8.1 13 8.1 18.3C8.1 19.9 8.9 20.7 10.5 20.7ZM43.5 20.7L49.05 19.8C51.65 19.8 53.95 20.7 55.95 22.5C58.05 24.2 59.1 26.75 59.1 30.15C59.1 33.45 58 36.25 55.8 38.55C53.6 40.85 50.5 42 46.5 42C42.6 42 39.35 40.5 36.75 37.5C34.25 34.5 33 30.65 33 25.95C33 21.15 34.8 16.4 38.4 11.7C42.1 6.99999 47.35 3.1 54.15 0L55.2 2.55C45.8 7.74999 41.1 13 41.1 18.3C41.1 19.9 41.9 20.7 43.5 20.7Z" fill="#D5E04E"/>
</svg>
